# xmcd
#
# Track frame offsets:
#	150
#	21637
#	34275
#	44400
#	63472
#	79147
#	95562
#	109250
#	121050
#	138322
#	148425
#	165172
#	183150
#	199295
#	213300
#
# Disc length: 3109 seconds
#
# Revision: 1
# Processed by: cddbd v1.4PL0 Copyright (c) Steve Scherf et al.
# Submitted via: audiograbber 1.82.02
#
DISCID=de0c230f
DTITLE=Rodeo Ranchers  - Long Ride Home
DYEAR=1900
DGENRE=Country
TTITLE0=Take a Walk
TTITLE1=Blue Blue Tears
TTITLE2=As I Walked Through
TTITLE3=You're Only a Memory Now
TTITLE4=Honky Tonk Moon
TTITLE5=The Truth it Hurts
TTITLE6=Who Said That
TTITLE7=Weekends
TTITLE8=But I Will
TTITLE9=Waiting for the Train
TTITLE10=Time Can't Change
TTITLE11=The Feelin's Gone
TTITLE12=Just Let Her Go
TTITLE13=Good Day for Goodbying
TTITLE14=Long Ride Home
EXTD=
EXTT0=
EXTT1=
EXTT2=
EXTT3=
EXTT4=
EXTT5=
EXTT6=
EXTT7=
EXTT8=
EXTT9=
EXTT10=
EXTT11=
EXTT12=
EXTT13=
EXTT14=
PLAYORDER=
